<?xml version="1.0" encoding="UTF-8" standalone="no"?>
<!DOCTYPE svg PUBLIC "-//W3C//DTD SVG 1.1//EN"
 "http://www.w3.org/Graphics/SVG/1.1/DTD/svg11.dtd">
<!-- Generated by graphviz version 2.40.1 (20161225.0304)
 -->
<!-- Title: paprg.h Pages: 1 -->
<svg width="120pt" height="84pt"
 viewBox="0.00 0.00 120.00 84.00" xmlns="http://www.w3.org/2000/svg" xmlns:xlink="http://www.w3.org/1999/xlink">
<g id="graph0" class="graph" transform="scale(1 1) rotate(0) translate(4 80)">
<title>paprg.h</title>
<polygon fill="#ffffff" stroke="transparent" points="-4,4 -4,-80 116,-80 116,4 -4,4"/>
<!-- Node6 -->
<g id="node1" class="node">
<title>Node6</title>
<polygon fill="#bfbfbf" stroke="#000000" points="32,-56.5 32,-75.5 85,-75.5 85,-56.5 32,-56.5"/>
<text text-anchor="middle" x="58.5" y="-63.5" font-family="Helvetica,sans-Serif" font-size="10.00" fill="#000000">paprg.h</text>
</g>
<!-- Node7 -->
<g id="node2" class="node">
<title>Node7</title>
<g id="a_node2"><a xlink:href="paprg_8c.html" target="_top" xlink:title="Исходный код библиотеки ">
<polygon fill="#ffffff" stroke="#000000" points="0,-.5 0,-19.5 53,-19.5 53,-.5 0,-.5"/>
<text text-anchor="middle" x="26.5" y="-7.5" font-family="Helvetica,sans-Serif" font-size="10.00" fill="#000000">paprg.c</text>
</a>
</g>
</g>
<!-- Node6&#45;&gt;Node7 -->
<g id="edge1" class="edge">
<title>Node6&#45;&gt;Node7</title>
<path fill="none" stroke="#191970" d="M47.8355,-47.3372C42.5346,-38.0605 36.3513,-27.2398 32.0101,-19.6427"/>
<polygon fill="#191970" stroke="#191970" points="44.9257,-49.2996 52.926,-56.2455 51.0034,-45.8266 44.9257,-49.2996"/>
</g>
<!-- Node8 -->
<g id="node3" class="node">
<title>Node8</title>
<g id="a_node3"><a xlink:href="prg_8c.html" target="_top" xlink:title="prg.c">
<polygon fill="#ffffff" stroke="#000000" points="71,-.5 71,-19.5 112,-19.5 112,-.5 71,-.5"/>
<text text-anchor="middle" x="91.5" y="-7.5" font-family="Helvetica,sans-Serif" font-size="10.00" fill="#000000">prg.c</text>
</a>
</g>
</g>
<!-- Node6&#45;&gt;Node8 -->
<g id="edge2" class="edge">
<title>Node6&#45;&gt;Node8</title>
<path fill="none" stroke="#191970" d="M69.3254,-47.6296C74.8299,-38.2887 81.2937,-27.3197 85.8177,-19.6427"/>
<polygon fill="#191970" stroke="#191970" points="66.3097,-45.8532 64.2482,-56.2455 72.3405,-49.4071 66.3097,-45.8532"/>
</g>
</g>
</svg>
