<?xml version="1.0" encoding="UTF-8" standalone="no"?>
<!DOCTYPE svg PUBLIC "-//W3C//DTD SVG 1.1//EN"
 "http://www.w3.org/Graphics/SVG/1.1/DTD/svg11.dtd">
<!-- Generated by graphviz version 2.40.1 (20161225.0304)
 -->
<!-- Title: portaudio.h Pages: 1 -->
<svg width="120pt" height="140pt"
 viewBox="0.00 0.00 120.00 140.00" xmlns="http://www.w3.org/2000/svg" xmlns:xlink="http://www.w3.org/1999/xlink">
<g id="graph0" class="graph" transform="scale(1 1) rotate(0) translate(4 136)">
<title>portaudio.h</title>
<polygon fill="#ffffff" stroke="transparent" points="-4,4 -4,-136 116,-136 116,4 -4,4"/>
<!-- Node1 -->
<g id="node1" class="node">
<title>Node1</title>
<polygon fill="#bfbfbf" stroke="#000000" points="22.5,-112.5 22.5,-131.5 94.5,-131.5 94.5,-112.5 22.5,-112.5"/>
<text text-anchor="middle" x="58.5" y="-119.5" font-family="Helvetica,sans-Serif" font-size="10.00" fill="#000000">portaudio.h</text>
</g>
<!-- Node2 -->
<g id="node2" class="node">
<title>Node2</title>
<g id="a_node2"><a xlink:href="paprg_8h.html" target="_top" xlink:title="Заголовочный файл для библиотеки ">
<polygon fill="#ffffff" stroke="#000000" points="32,-56.5 32,-75.5 85,-75.5 85,-56.5 32,-56.5"/>
<text text-anchor="middle" x="58.5" y="-63.5" font-family="Helvetica,sans-Serif" font-size="10.00" fill="#000000">paprg.h</text>
</a>
</g>
</g>
<!-- Node1&#45;&gt;Node2 -->
<g id="edge1" class="edge">
<title>Node1&#45;&gt;Node2</title>
<path fill="none" stroke="#191970" d="M58.5,-102.1575C58.5,-93.155 58.5,-82.9199 58.5,-75.6427"/>
<polygon fill="#191970" stroke="#191970" points="55.0001,-102.2455 58.5,-112.2455 62.0001,-102.2456 55.0001,-102.2455"/>
</g>
<!-- Node3 -->
<g id="node3" class="node">
<title>Node3</title>
<g id="a_node3"><a xlink:href="paprg_8c.html" target="_top" xlink:title="Исходный код библиотеки ">
<polygon fill="#ffffff" stroke="#000000" points="0,-.5 0,-19.5 53,-19.5 53,-.5 0,-.5"/>
<text text-anchor="middle" x="26.5" y="-7.5" font-family="Helvetica,sans-Serif" font-size="10.00" fill="#000000">paprg.c</text>
</a>
</g>
</g>
<!-- Node2&#45;&gt;Node3 -->
<g id="edge2" class="edge">
<title>Node2&#45;&gt;Node3</title>
<path fill="none" stroke="#191970" d="M47.8355,-47.3372C42.5346,-38.0605 36.3513,-27.2398 32.0101,-19.6427"/>
<polygon fill="#191970" stroke="#191970" points="44.9257,-49.2996 52.926,-56.2455 51.0034,-45.8266 44.9257,-49.2996"/>
</g>
<!-- Node4 -->
<g id="node4" class="node">
<title>Node4</title>
<g id="a_node4"><a xlink:href="prg_8c.html" target="_top" xlink:title="prg.c">
<polygon fill="#ffffff" stroke="#000000" points="71,-.5 71,-19.5 112,-19.5 112,-.5 71,-.5"/>
<text text-anchor="middle" x="91.5" y="-7.5" font-family="Helvetica,sans-Serif" font-size="10.00" fill="#000000">prg.c</text>
</a>
</g>
</g>
<!-- Node2&#45;&gt;Node4 -->
<g id="edge3" class="edge">
<title>Node2&#45;&gt;Node4</title>
<path fill="none" stroke="#191970" d="M69.3254,-47.6296C74.8299,-38.2887 81.2937,-27.3197 85.8177,-19.6427"/>
<polygon fill="#191970" stroke="#191970" points="66.3097,-45.8532 64.2482,-56.2455 72.3405,-49.4071 66.3097,-45.8532"/>
</g>
</g>
</svg>
