<?xml version="1.0" encoding="UTF-8" standalone="no"?>
<!DOCTYPE svg PUBLIC "-//W3C//DTD SVG 1.1//EN"
 "http://www.w3.org/Graphics/SVG/1.1/DTD/svg11.dtd">
<!-- Generated by graphviz version 2.40.1 (20161225.0304)
 -->
<!-- Title: prg.c Pages: 1 -->
<svg width="360pt" height="140pt"
 viewBox="0.00 0.00 360.00 140.00" xmlns="http://www.w3.org/2000/svg" xmlns:xlink="http://www.w3.org/1999/xlink">
<g id="graph0" class="graph" transform="scale(1 1) rotate(0) translate(4 136)">
<title>prg.c</title>
<polygon fill="#ffffff" stroke="transparent" points="-4,4 -4,-136 356,-136 356,4 -4,4"/>
<!-- Node0 -->
<g id="node1" class="node">
<title>Node0</title>
<polygon fill="#bfbfbf" stroke="#000000" points="145.5,-112.5 145.5,-131.5 186.5,-131.5 186.5,-112.5 145.5,-112.5"/>
<text text-anchor="middle" x="166" y="-119.5" font-family="Helvetica,sans-Serif" font-size="10.00" fill="#000000">prg.c</text>
</g>
<!-- Node1 -->
<g id="node2" class="node">
<title>Node1</title>
<g id="a_node2"><a xlink:href="paprg_8h.html" target="_top" xlink:title="Заголовочный файл для библиотеки ">
<polygon fill="#ffffff" stroke="#000000" points="139.5,-56.5 139.5,-75.5 192.5,-75.5 192.5,-56.5 139.5,-56.5"/>
<text text-anchor="middle" x="166" y="-63.5" font-family="Helvetica,sans-Serif" font-size="10.00" fill="#000000">paprg.h</text>
</a>
</g>
</g>
<!-- Node0&#45;&gt;Node1 -->
<g id="edge1" class="edge">
<title>Node0&#45;&gt;Node1</title>
<path fill="none" stroke="#191970" d="M166,-112.2455C166,-104.9382 166,-94.6944 166,-85.7046"/>
<polygon fill="#191970" stroke="#191970" points="169.5001,-85.6426 166,-75.6427 162.5001,-85.6427 169.5001,-85.6426"/>
</g>
<!-- Node2 -->
<g id="node3" class="node">
<title>Node2</title>
<polygon fill="#ffffff" stroke="#bfbfbf" points="0,-.5 0,-19.5 50,-19.5 50,-.5 0,-.5"/>
<text text-anchor="middle" x="25" y="-7.5" font-family="Helvetica,sans-Serif" font-size="10.00" fill="#000000">stdio.h</text>
</g>
<!-- Node1&#45;&gt;Node2 -->
<g id="edge2" class="edge">
<title>Node1&#45;&gt;Node2</title>
<path fill="none" stroke="#191970" d="M141.7612,-56.3733C118.7211,-47.2226 83.8786,-33.3844 58.2499,-23.2057"/>
<polygon fill="#191970" stroke="#191970" points="59.5082,-19.9395 48.9225,-19.5011 56.9244,-26.4452 59.5082,-19.9395"/>
</g>
<!-- Node3 -->
<g id="node4" class="node">
<title>Node3</title>
<polygon fill="#ffffff" stroke="#bfbfbf" points="68.5,-.5 68.5,-19.5 121.5,-19.5 121.5,-.5 68.5,-.5"/>
<text text-anchor="middle" x="95" y="-7.5" font-family="Helvetica,sans-Serif" font-size="10.00" fill="#000000">stdlib.h</text>
</g>
<!-- Node1&#45;&gt;Node3 -->
<g id="edge3" class="edge">
<title>Node1&#45;&gt;Node3</title>
<path fill="none" stroke="#191970" d="M153.6327,-56.2455C143.0446,-47.8943 127.5936,-35.7076 115.2107,-25.9408"/>
<polygon fill="#191970" stroke="#191970" points="117.2447,-23.0875 107.2255,-19.6427 112.9097,-28.5837 117.2447,-23.0875"/>
</g>
<!-- Node4 -->
<g id="node5" class="node">
<title>Node4</title>
<polygon fill="#ffffff" stroke="#bfbfbf" points="139.5,-.5 139.5,-19.5 192.5,-19.5 192.5,-.5 139.5,-.5"/>
<text text-anchor="middle" x="166" y="-7.5" font-family="Helvetica,sans-Serif" font-size="10.00" fill="#000000">string.h</text>
</g>
<!-- Node1&#45;&gt;Node4 -->
<g id="edge4" class="edge">
<title>Node1&#45;&gt;Node4</title>
<path fill="none" stroke="#191970" d="M166,-56.2455C166,-48.9382 166,-38.6944 166,-29.7046"/>
<polygon fill="#191970" stroke="#191970" points="169.5001,-29.6426 166,-19.6427 162.5001,-29.6427 169.5001,-29.6426"/>
</g>
<!-- Node5 -->
<g id="node6" class="node">
<title>Node5</title>
<polygon fill="#ffffff" stroke="#bfbfbf" points="210.5,-.5 210.5,-19.5 261.5,-19.5 261.5,-.5 210.5,-.5"/>
<text text-anchor="middle" x="236" y="-7.5" font-family="Helvetica,sans-Serif" font-size="10.00" fill="#000000">math.h</text>
</g>
<!-- Node1&#45;&gt;Node5 -->
<g id="edge5" class="edge">
<title>Node1&#45;&gt;Node5</title>
<path fill="none" stroke="#191970" d="M178.1931,-56.2455C188.6321,-47.8943 203.8655,-35.7076 216.074,-25.9408"/>
<polygon fill="#191970" stroke="#191970" points="218.3244,-28.6227 223.9467,-19.6427 213.9515,-23.1566 218.3244,-28.6227"/>
</g>
<!-- Node6 -->
<g id="node7" class="node">
<title>Node6</title>
<polygon fill="#ffffff" stroke="#bfbfbf" points="280,-.5 280,-19.5 352,-19.5 352,-.5 280,-.5"/>
<text text-anchor="middle" x="316" y="-7.5" font-family="Helvetica,sans-Serif" font-size="10.00" fill="#000000">portaudio.h</text>
</g>
<!-- Node1&#45;&gt;Node6 -->
<g id="edge6" class="edge">
<title>Node1&#45;&gt;Node6</title>
<path fill="none" stroke="#191970" d="M191.7859,-56.3733C216.4047,-47.1822 253.69,-33.2624 280.9875,-23.0713"/>
<polygon fill="#191970" stroke="#191970" points="282.4063,-26.2777 290.5506,-19.5011 279.958,-19.7198 282.4063,-26.2777"/>
</g>
</g>
</svg>
